<svg height="340"
    width="300"
    xmlns="http://www.w3.org/2000/svg">
    <!-- Created with Method Draw - http://github.com/duopixel/Method-Draw/ -->

    <g>
        <title>background</title>
        <rect
            fill="none"
            height="342"
            id="canvas_background"
            width="302"
            x="-1"
            y="-1" />
    </g>
    <g>
        <title>Layer 1</title>
        <path
            d="m7.934194,342.047835c0,0 2.061398,0 3.092097,0c2.061398,0 3.092097,0 6.184194,0c1.030699,0 2.061398,0 4.122796,0c1.030699,0 3.092097,0 5.153495,0c1.030699,0 3.092097,0 4.122796,0c0,0 1.030699,1.042487 3.092097,1.042487c1.030699,0 3.092097,0 4.122796,0c2.061398,0 3.092097,0 4.122796,0c2.061398,0 4.122796,0 5.153495,0c1.030699,0 2.061398,0 3.092097,0c1.030699,0 2.061398,0 3.092097,0c1.030699,0 2.061398,0 3.092097,0c1.030699,0 2.061398,1.042487 3.092097,1.042487c1.030699,0 2.074704,-0.166986 3.092097,0c3.217265,0.528051 5.153495,1.042487 7.214893,1.042487c1.030699,0 2.061398,0 5.153495,0c1.030699,0 2.061398,0 3.092097,0c1.030699,0 2.061398,0 3.092097,0c2.061398,0 3.092097,0 5.153495,0c2.061398,0 4.122796,0 5.153495,0c1.030699,0 2.061398,0 3.092097,0c1.030699,0 2.061398,0 3.092097,0c1.030699,0 3.092097,0 5.153495,0c1.030699,0 3.092097,0 4.122796,0c2.061398,0 5.208648,-0.479023 7.214893,0c2.243059,0.535567 4.122796,1.042487 6.184194,1.042487c4.122796,0 7.214893,0 9.276291,0c3.092097,0 5.153495,0 7.214893,0c1.030699,0 2.061398,1.042487 4.122796,1.042487c1.030699,0 2.061398,0 3.092097,0c1.030699,0 2.061398,0 4.122796,0c1.030699,0 3.092097,0 4.122796,0c2.061398,0 4.122796,0 6.184194,0c2.061398,0 3.092097,0 4.122796,0c1.030699,0 2.061398,0 3.092097,0c1.030699,0 2.061398,0 3.092097,0c1.030699,0 2.061398,0 4.122796,0c1.030699,0 2.061398,0 3.092097,0c1.030699,0 2.061398,0 3.092097,0c2.061398,0 2.910436,-0.50692 5.153495,-1.042487c2.006256,-0.479023 3.092097,0 4.122796,0c2.061398,0 3.147239,0.479033 5.153495,0c2.243059,-0.535557 4.122796,-1.042487 5.153495,-1.042487c1.030699,0 3.249011,0.797899 5.153495,0c1.34667,-0.564194 2.910436,-1.549407 5.153495,-2.084975c1.003128,-0.239522 2.218312,0.797899 4.122796,0c1.34667,-0.564194 2.061398,-1.042487 3.092097,-1.042487c2.061398,0 2.061398,-1.042487 3.092097,-1.042487c1.030699,0 2.061398,0 3.092097,0c2.061398,0 2.061398,-1.042487 3.092097,-1.042487c1.030699,0 2.061398,0 3.092097,0c2.061398,0 3.170564,0.39895 4.122796,0c1.34667,-0.564194 2.139865,-0.643538 3.092097,-1.042487c1.34667,-0.564194 2.061398,-1.042487 3.092097,-1.042487c1.030699,0 2.061398,0 3.092097,0c2.061398,0 3.119668,0.239532 4.122796,0c2.243059,-0.535557 3.092097,-1.042487 4.122796,-1.042487c1.030699,0 2.061398,0 3.092097,0c1.030699,0 2.061398,0 3.092097,0c1.030699,0 2.061398,-1.042487 3.092097,-1.042487c1.030699,0 2.061398,0 3.092097,0c1.030699,0 1.332601,-0.305345 2.061398,-1.042487c0.728797,-0.737132 2.061398,0 3.092097,0c1.030699,0 2.061398,0 3.092097,0c1.030699,0 1.030699,-1.042487 2.061398,-1.042487c1.030699,0 2.061398,0 3.092097,0c1.030699,0 1.030699,-1.042487 2.061398,-1.042487c1.030699,0 2.061398,0 3.092097,0c1.030699,0 2.061398,0 3.092097,0c1.030699,0 2.139844,0.39895 3.092097,0c1.34666,-0.564194 2.3633,-0.305345 3.092097,-1.042487c0.728797,-0.737132 1.030699,-1.042487 2.061398,-1.042487c1.030699,0 1.109145,-0.643538 2.061398,-1.042487c1.34666,-0.564194 2.061398,-1.042487 2.061398,-2.084975c0,-1.042487 1.030699,-1.042487 1.030699,-2.084975c0,-1.042487 2.061398,-2.084975 2.061398,-4.16995c0,-1.042487 0.501198,-1.901247 1.030699,-4.16995c0.473606,-2.029202 1.030699,-3.127462 1.030699,-4.16995c0,-1.042487 0,-3.127462 0,-5.212437c0,-1.042487 1.030699,-3.127462 1.030699,-4.16995c0,-1.042487 0,-3.127462 0,-5.212437c0,-1.042487 0,-2.084975 0,-3.127462c0,-2.084975 0.472885,-3.850375 1.030699,-5.212437c0.394438,-0.963133 0,-2.084975 0,-3.127462c0,-1.042487 0,-2.084975 0,-3.127462c0,-1.042487 0,-2.084975 0,-3.127462c0,-2.084975 0,-3.127462 0,-4.16995c0,-1.042487 0,-2.084975 0,-4.16995c0,-1.042487 0,-2.084975 0,-3.127462c0,-1.042487 0.394438,-2.164319 0,-3.127462c-0.557814,-1.362062 -1.030699,-2.084975 -1.030699,-4.16995c0,-1.042487 -1.030699,-3.127462 -1.030699,-4.16995c0,-2.084975 -1.030699,-3.127462 -1.030699,-4.16995c0,-1.042487 0,-2.084975 0,-3.127462c0,-1.042487 -1.030699,-3.127462 -1.030699,-4.16995c0,-1.042487 -0.472885,-1.7654 -1.030699,-3.127462c-0.394438,-0.963123 -0.301902,-1.347822 -1.030699,-2.084975c-0.728797,-0.737143 0,-3.127462 0,-4.16995c0,-1.042487 -1.030699,-2.084975 -1.030699,-3.127462c0,-1.042487 0.728797,-2.390309 0,-3.127462c-0.728797,-0.737143 -1.030699,-1.042487 -1.030699,-2.084975c0,-1.042487 0,-2.084975 0,-4.16995c0,-1.042487 0,-2.084975 0,-3.127462c0,-1.042487 -1.030699,-1.042487 -1.030699,-2.084975c0,-1.042487 0.236824,-2.112851 0,-3.127462c-0.529501,-2.268713 -1.030699,-3.127462 -1.030699,-4.16995c0,-1.042487 0,-3.127462 0,-4.16995c0,-1.042487 0,-2.084975 0,-3.127462c0,-1.042487 0,-2.084975 0,-3.127462c0,-2.084975 -1.030699,-3.127462 -1.030699,-5.212437c0,-2.084975 0,-3.127462 0,-5.212437c0,-1.042487 0,-2.084975 0,-3.127462c0,-1.042487 0,-2.084975 0,-4.16995c0,-1.042487 0,-2.084975 0,-3.127462c0,-1.042487 0,-3.127462 0,-4.16995c0,-1.042487 0,-2.084975 0,-3.127462c0,-1.042487 0,-2.084975 0,-3.127462c0,-1.042487 0,-2.084975 0,-3.127462c0,-1.042487 0,-3.127462 0,-4.16995c0,-2.084975 1.030699,-3.127462 1.030699,-6.254924c0,-1.042487 0,-2.084975 0,-3.127462c0,-1.042487 0,-3.127462 0,-4.16995c0,-2.084975 0,-3.127462 0,-4.16995c0,-1.042487 0,-2.084975 0,-3.127462c0,-2.084975 0,-3.127462 0,-4.16995c0,-1.042487 0,-3.127462 0,-4.16995c0,-1.042487 0,-2.084975 0,-3.127462c0,-1.042487 0,-3.127462 0,-4.16995c0,-2.084975 0.394438,-4.249304 0,-5.212437c-0.557814,-1.362072 -0.793875,-2.112851 -1.030699,-3.127462c-0.529501,-2.268713 -1.030699,-3.127462 -1.030699,-4.16995c0,-2.084975 -0.472885,-2.807867 -1.030699,-4.16995c-0.788876,-1.926256 0.394438,-3.206806 0,-4.16995c-0.557814,-1.362072 -1.030699,-2.084975 -1.030699,-3.127462c0,-1.042487 -0.793875,-3.155338 -1.030699,-4.16995c-0.529501,-2.268713 -1.503584,-2.807867 -2.061398,-4.16995c-0.394438,-0.963133 0,-2.084975 -1.030699,-3.127462c-1.030699,-1.042487 -1.531897,-1.901226 -2.061398,-4.16995c-0.236824,-1.014601 -1.503584,-0.722892 -2.061398,-2.084975c-0.394438,-0.963133 0,-2.084975 -1.030699,-2.084975c-1.030699,0 -1.66696,-1.121831 -2.061398,-2.084975c-0.557814,-1.362072 -1.332601,-1.347822 -2.061398,-2.084975c-0.728797,-0.737143 -0.7138,-1.23639 -2.061398,-3.127462c-0.852285,-1.196015 -1.880438,-1.144526 -3.092097,-3.127462c-0.541869,-0.886792 -0.636261,-1.121831 -1.030699,-2.084975c-0.557814,-1.362072 -2.061398,-2.084975 -3.092097,-3.127462c-1.030699,-1.042487 -0.714738,-2.563268 -2.061398,-3.127462c-0.952252,-0.398939 -1.332601,-0.305334 -2.061398,-1.042487c-0.728797,-0.737143 -1.030699,-2.084975 -2.061398,-3.127462c-1.030699,-1.042487 -2.061398,-2.084975 -3.092097,-3.127462c-1.030699,-1.042487 -2.363279,-1.347822 -3.092097,-2.084975c-0.728818,-0.737143 -1.030699,-2.084975 -2.061398,-3.127462c-1.030699,-1.042487 -2.363279,-1.347822 -3.092097,-2.084975c-0.728818,-0.737143 -1.745427,-2.563268 -3.092097,-3.127462c-0.952232,-0.398939 -1.745427,-2.563268 -3.092097,-3.127462c-0.952232,-0.398939 -2.534283,-0.722892 -3.092097,-2.084975c-0.394438,-0.963123 -0.714728,-1.520781 -2.061398,-2.084975c-0.952232,-0.398939 -2.139865,-1.686025 -3.092097,-2.084975c-1.34667,-0.564184 -3.170564,-2.728513 -4.122796,-3.127462c-1.34667,-0.564184 -1.109166,-1.686025 -2.061398,-2.084975c-2.69335,-1.128378 -3.393978,-2.390309 -4.122796,-3.127462c-0.728818,-0.737143 -2.139865,-0.643538 -3.092097,-1.042487c-1.34667,-0.564184 -3.170564,-1.686025 -4.122796,-2.084975c-1.34667,-0.564184 -2.088969,-1.845453 -3.092097,-2.084975c-2.243059,-0.535567 -3.393978,-2.390309 -4.122796,-3.127462c-1.457635,-1.474296 -3.092097,-2.084975 -4.122796,-2.084975c-1.030699,0 -1.33258,-0.305334 -2.061398,-1.042487c-1.457635,-1.474296 -3.092097,0 -4.122796,-1.042487c-1.030699,-1.042487 -2.363279,-1.347822 -3.092097,-2.084975c-0.728818,-0.737143 -2.061398,0 -3.092097,-1.042487c-1.030699,-1.042487 -2.088969,-0.802965 -3.092097,-1.042487c-2.243059,-0.535567 -4.177938,-1.605941 -6.184194,-2.084975c-2.243059,-0.535567 -2.061398,-2.084975 -4.122796,-2.084975c-2.061398,0 -4.122796,-1.042487 -5.153495,-1.042487c-1.030699,0 -2.061398,-1.042487 -3.092097,-1.042487c-2.061398,0 -3.170564,0.39895 -4.122796,0c-1.34667,-0.564184 -4.122796,-1.042487 -7.214893,-1.042487c-2.061398,0 -4.122796,0 -6.184194,0c-2.061398,0 -4.122796,0 -7.214893,0c-2.061398,0 -4.122796,0 -5.153495,0c-1.030699,0 -4.358166,-1.196828 -7.214893,0c-1.34667,0.564194 -2.061398,1.042487 -4.122796,2.084975c-2.061398,1.042487 -3.092097,1.042487 -4.122796,1.042487c-1.030699,0 -1.030699,1.042487 -3.092097,1.042487c-1.030699,0 -2.061398,1.042487 -3.092097,1.042487c-1.030699,0 -1.745427,0.478304 -3.092097,1.042487c-0.952242,0.39895 -1.030699,1.042487 -2.061398,1.042487c-1.030699,0 -2.139855,-0.398939 -3.092097,0c-1.34667,0.564194 -3.092097,1.042487 -4.122796,1.042487c-1.030699,0 -2.061398,0 -3.092097,0c-1.030699,0 -1.030699,1.042487 -3.092097,1.042487c-1.030699,0 -2.061398,0 -3.092097,0c-1.030699,0 -3.092097,0 -4.122796,0c-2.061398,0 -2.061398,1.042487 -3.092097,1.042487c-2.061398,0 -3.092097,0 -4.122796,0c-1.030699,0 -2.061398,1.042487 -3.092097,1.042487c-1.030699,0 -2.061398,0 -3.092097,0c-1.030699,0 -1.030699,1.042487 -2.061398,1.042487c-1.030699,0 -1.745427,0.478304 -3.092097,1.042487c-0.952242,0.39895 -1.030699,1.042487 -3.092097,1.042487c-1.030699,0 -2.363279,0.305345 -3.092097,1.042487c-0.728818,0.737153 -1.109156,0.643548 -2.061398,1.042487c-1.34667,0.564194 -1.745427,2.563278 -3.092097,3.127462c-0.952242,0.39895 -1.33258,1.347832 -2.061398,2.084975c-0.728818,0.737153 -2.534283,0.722902 -3.092097,2.084975c-0.394428,0.963133 -1.880438,1.144536 -3.092097,3.127462c-0.541869,0.886792 -0.301881,1.347832 -1.030699,2.084975c-0.728818,0.737153 -0.301881,1.347832 -1.030699,2.084975c-0.728818,0.737153 -0.301881,1.347832 -1.030699,2.084975c-0.728818,0.737153 -0.301881,1.347832 -1.030699,2.084975c-0.728818,0.737153 -0.636271,1.121852 -1.030699,2.084975c-0.557814,1.362083 -0.301881,2.390319 -1.030699,3.127462c-0.728818,0.737153 -2.061398,1.042487 -2.061398,2.084975c0,1.042487 -0.636271,2.164329 -1.030699,3.127462c-0.557814,1.362083 -1.33258,2.390319 -2.061398,3.127462c-0.728818,0.737153 -0.472885,1.76539 -1.030699,3.127462c-0.788866,1.926267 -0.636271,3.206816 -1.030699,4.16995c-0.557814,1.362083 -1.503584,2.807877 -2.061398,4.16995c-0.394428,0.963144 -0.301881,1.347832 -1.030699,2.084975c-0.728818,0.737153 0.426926,1.653166 -1.030699,3.127462c-0.728818,0.737153 -0.301881,1.347832 -1.030699,2.084975c-0.728818,0.737153 -1.33258,0.305345 -2.061398,1.042487c-0.728818,0.737153 -0.301881,1.347832 -1.030699,2.084975c-0.728818,0.737153 -1.030699,1.042487 -1.030699,2.084975c0,1.042487 -0.301881,1.347832 -1.030699,2.084975c-0.728818,0.737153 -1.030699,1.042487 -2.061398,2.084975c-1.030699,1.042487 -1.209113,1.931448 -2.061398,3.127462c-1.347587,1.891072 -1.66697,3.206816 -2.061398,4.16995c-0.557814,1.362083 -1.209113,1.931448 -2.061398,3.127462c-1.347587,1.891072 -1.66697,4.249304 -2.061398,5.212437c-0.557814,1.362083 -2.061398,2.084975 -2.061398,3.127462c0,1.042487 0.394428,2.164329 0,3.127462c-0.557814,1.362083 -0.713811,2.278888 -2.061398,4.16995c-0.852285,1.196015 -0.636271,3.206827 -1.030699,4.16995c-0.557814,1.362083 -1.030699,2.084975 -1.030699,3.127462c0,1.042487 -1.030699,2.084975 -1.030699,3.127462c0,1.042487 0.394428,2.164339 0,3.127462c-0.557814,1.362083 -1.531887,1.901236 -2.061398,4.16995c-0.236803,1.014611 0,2.084975 0,3.127462c0,1.042487 -1.030699,2.084975 -1.030699,3.127462c0,1.042487 0,2.084975 0,3.127462c0,1.042487 -1.030699,2.084975 -1.030699,3.127462c0,1.042487 -0.472885,1.76539 -1.030699,3.127462c-0.394428,0.963133 0,2.084975 0,3.127462c0,1.042487 -0.472885,1.76539 -1.030699,3.127462c-0.394428,0.963133 0,2.084975 0,3.127462c0,2.084975 0.394428,3.206827 0,4.16995c-0.557814,1.362083 -0.636271,2.164339 -1.030699,3.127462c-0.557814,1.362083 -1.030699,2.084975 -1.030699,3.127462c0,2.084975 0,3.127462 0,4.16995c0,1.042487 -0.301881,1.347832 -1.030699,2.084975c-0.728818,0.737153 0,3.127462 0,4.16995c0,1.042487 0,2.084975 0,3.127462c0,1.042487 0,2.084975 0,3.127462c0,1.042487 0.394428,2.164339 0,3.127462c-0.557814,1.362083 -1.030699,2.084975 -1.030699,3.127462c0,2.084975 0.788866,3.28617 0,5.212437c-0.557814,1.362083 -1.030699,2.084975 -1.030699,3.127462c0,1.042487 0,2.084975 0,3.127462c0,2.084975 0,3.127462 0,5.212437c0,1.042487 0,3.127462 0,4.16995c0,1.042487 0,2.084975 0,3.127462c0,1.042487 0,2.084975 0,3.127462c0,1.042487 -1.030699,2.084975 -1.030699,3.127462c0,1.042487 0,2.084975 0,3.127462c0,2.084975 0,3.127462 0,4.16995c0,1.042487 0,2.084975 0,3.127462c0,1.042487 0,2.084975 0,3.127462c0,2.084975 0,3.127462 0,5.212437c0,1.042487 0,2.084975 0,3.127462c0,1.042487 0,2.084975 0,3.127462c0,1.042487 -1.030699,1.042487 -1.030699,2.084975c0,1.042487 0,2.084975 0,3.127462c0,1.042487 0,2.084975 0,3.127462c0,2.084975 0,3.127462 0,4.16995c0,2.084975 0,3.127462 0,5.212437c0,1.042487 0,2.084975 0,3.127462c0,2.084975 0,3.127462 0,4.16995c0,1.042487 0,2.084975 0,4.16995c0,1.042487 0,3.127462 0,4.16995c0,2.084975 0,3.127462 0,5.212437c0,2.084975 0,4.16995 0,6.254924c0,1.042487 0,3.127462 0,4.16995c0,1.042487 0,2.084975 0,4.16995c0,1.042487 0,2.084975 0,3.127462c0,2.084975 0,3.127462 0,4.16995c0,1.042487 0,2.084975 0,3.127462c0,2.084975 0,4.16995 0,5.212437c0,2.084975 0,3.127462 0,4.16995c0,1.042487 0,2.084975 0,3.127462c0,1.042487 0,2.084975 0,3.127462c0,1.042487 0.472885,2.807888 1.030699,4.16995c0.394428,0.963144 -0.728818,2.39033 0,3.127462c0.728818,0.737143 0.636271,1.121842 1.030699,2.084975c0.557814,1.362062 1.030699,2.084975 1.030699,3.127462c0,1.042487 0.301881,1.347842 1.030699,2.084975c0.728818,0.737143 0,2.084975 0,3.127462c0,1.042487 1.030699,1.042487 1.030699,2.084975c0,1.042487 0,2.084975 0,3.127462l0,1.042487l0,1.042487"
            fill="#000000"
            id="svg_2"
            stroke="#000"
            stroke-width="1.5" />
    </g>
</svg>