<svg height="330"
    width="300"
    xmlns="http://www.w3.org/2000/svg">
    <!-- Created with Method Draw - http://github.com/duopixel/Method-Draw/ -->
    <g>
        <title>Layer 1</title>
        <path
            d="m12.5,326.5c0,0 1,0 3,0c1,0 2,0 3,0c1,0 3,0 5,0c1,0 2.292892,0.707092 3,0c0.707108,-0.707092 2,-1 3,-1c1,0 1.878555,-0.493469 5,-1c1.974174,-0.320374 1.693436,-0.458801 3,-1c1.847759,-0.765381 3.693436,-0.458801 5,-1c0.923878,-0.38269 2,0 3,0c2,0 3,0 5,0c2,0 3,0 4,0c1,0 2,0 4,0c1,0 2,0 3,0c1,0 2,0 3,0c1,0 2,0 3,0c2,0 4,0 5,0c2,0 3.076118,-0.38269 4,0c1.306564,0.541199 4,1 5,1c1,0 2,0 3,0c1,0 2,0 4,0c1,0 2,0 4,0c1,0 2,0 3,0c2,0 2.292892,0.292908 3,1c0.707108,0.707092 2,0 3,0c2,0 3,0 5,0c2,0 3,0 4,0c2,0 2.693436,0.458801 4,1c1.847755,0.765381 3,0 4,0c1,0 3,0 5,0c2,0 3,1 4,1c1,0 2,0 4,0c1,0 2,0 3,0c1,0 2.693436,0.458801 4,1c0.923874,0.38269 3,0 4,0c1,0 2,0 3,0c2,0 3,0 4,0c1,0 2.823746,0.486267 5,1c0.973251,0.229767 3,0 4,0c1,0 2,0 4,0c1,0 4,0 6,0c2,0 5,0 7,0c3,0 4,0 5,0c1,0 3,0 4,0c1,0 3,1 4,1c2,0 3,0 4,0c1,0 2,0 3,0c2,0 3,0 4,0c2,0 3,0 6,0c1,0 4,0 8,0c3,0 5,0 7,0c1,0 4,0 5,0c1,0 3,0 4,0c1,0 2,0 4,0c1,0 1,-1 2,-1c1,0 2,0 3,0c2,0 3.076126,0.38269 4,0c1.306564,-0.541199 2,-1 3,-1c1,0 2,-1 4,-1c1,0 2,0 3,0c1,0 1.693436,-0.458801 3,-1c0.923874,-0.38269 2,0 3,0c1,0 2,0 3,0c2,0 3.076111,0.38269 4,0c1.306549,-0.541199 2,-1 3,-1c1,0 1.693451,-0.458801 3,-1c0.923889,-0.38269 2,0 3,0c1,0 1,-1 2,-1c1,0 1.292908,-0.292908 2,-1c0.707092,-0.707092 0.292908,-1.292908 1,-2c0.707092,-0.707092 1.292908,-0.292908 2,-1c0.707092,-0.707092 1,-2 1,-3c0,-1 0.61731,-1.076111 1,-2c0.541199,-1.306549 1.292908,-1.292908 2,-2c0.707092,-0.707092 0.292908,-1.292908 1,-2c1.414215,-1.414215 0.292908,-2.292908 1,-3c0.707092,-0.707092 -0.707092,-2.292908 0,-3c0.707092,-0.707092 1,-1 1,-2c0,-1 0.458801,-1.693451 1,-3c0.765381,-1.847748 1,-2 1,-3c0,-1 0,-2 0,-3c0,-1 0,-3 0,-5c0,-1 -0.765381,-2.152252 0,-4c0.541199,-1.306549 1,-4 1,-5c0,-2 0,-3 0,-5c0,-2 0,-3 0,-4c0,-1 0,-2 0,-5c0,-2 0,-3 0,-5c0,-1 0,-3 0,-4c0,-1 0,-2 0,-3c0,-1 -0.458801,-1.693451 -1,-3c-0.38269,-0.923874 0,-2 0,-3c0,-1 -1,-1 -1,-3c0,-1 0,-2 0,-3c0,-1 0,-2 0,-3c0,-1 0,-2 0,-4c0,-1 0.38269,-2.076126 0,-3c-0.541199,-1.306564 -1,-2 -1,-3c0,-1 0,-2 0,-3c0,-1 0,-3 0,-4c0,-1 0.38269,-2.076126 0,-3c-0.541199,-1.306564 -1,-3 -1,-4c0,-2 0,-3 0,-5c0,-1 0,-3 0,-4c0,-2 -0.458801,-2.693436 -1,-4c-0.38269,-0.923874 0,-3 0,-4c0,-1 0,-2 0,-3c0,-2 0,-4 0,-6c0,-1 -1,-2 -1,-4c0,-2 0,-3 0,-4c0,-2 -1,-4 -1,-5c0,-1 -1,-3 -1,-4c0,-1 0,-2 0,-4c0,-1 0,-3 0,-4c0,-1 -1,-2 -1,-3c0,-1 0,-2 0,-3c0,-2 0,-3 0,-5c0,-1 -0.458801,-1.693436 -1,-3c-0.38269,-0.923874 0,-2 0,-3c0,-1 -0.458801,-1.693436 -1,-3c-0.765381,-1.847763 0,-3 0,-4c0,-1 0,-3 0,-4c0,-1 -1,-2 -1,-4c0,-1 0,-3 0,-4c0,-1 0.459503,-2.053497 0,-4c-0.513733,-2.176254 0.414215,-3.585785 -1,-5c-0.707092,-0.707108 -1,-1 -1,-2c0,-1 0,-2 0,-3c0,-1 -1,-2 -1,-3c0,-1 0.38269,-2.076118 0,-3c-0.541199,-1.306564 -1.458801,-1.693436 -2,-3c-0.38269,-0.923882 -0.292908,-2.292892 -1,-3c-0.707092,-0.707108 -0.458801,-1.693436 -1,-3c-0.38269,-0.923882 -1,-1 -1,-2c0,-1 -0.61731,-2.076118 -1,-3c-0.541199,-1.306564 -0.585785,-2.585785 -2,-4c-0.707092,-0.707108 -0.0979,-1.824432 -2,-3c-0.850647,-0.525734 -1.486267,-0.823746 -2,-3c-0.229767,-0.973251 -1.292908,-2.292892 -2,-3c-1.414215,-1.414215 -1.292908,-2.292892 -2,-3c-0.707092,-0.707108 -0.292908,-2.292892 -1,-3c-0.707092,-0.707108 -0.693451,-2.458801 -2,-3c-0.923874,-0.382683 -1.292892,-0.292892 -2,-1c-0.707108,-0.707108 -0.292892,-1.292892 -1,-2c-0.707108,-0.707108 -1,-1 -2,-2c-1,-1 -1.076126,-1.617317 -2,-2c-1.306564,-0.541199 -1.292892,-2.292892 -2,-3c-0.707108,-0.707108 -2.076126,-0.617317 -3,-1c-1.306564,-0.541199 -0.693436,-2.458805 -2,-3c-0.923874,-0.382683 -2.458801,-0.693436 -3,-2c-0.38269,-0.923878 -1.292892,-2.292892 -2,-3c-1.414215,-1.414215 -2.186005,-0.692547 -4,-2c-1.147263,-0.826904 -2.824432,-1.097885 -4,-3c-0.525726,-0.850651 -1,-1 -2,-2c-1,-1 -2.076126,-1.617317 -3,-2c-1.306564,-0.541195 -2.292892,-1.292892 -3,-2c-0.707108,-0.707108 -0.292892,-1.292892 -1,-2c-0.707108,-0.707108 -1.076126,-0.617317 -2,-1c-1.306564,-0.541195 -2.693436,-2.458805 -4,-3c-0.923874,-0.382683 -1.097885,-0.824429 -3,-2c-0.850647,-0.52573 -1.61731,-0.076122 -2,-1c-0.541199,-1.306564 -1.693436,-1.458805 -3,-2c-0.923874,-0.382683 -2,-1 -4,-2c-2,-1 -2.585785,-0.585785 -4,-2c-0.707108,-0.707108 -2.076126,-1.617317 -3,-2c-1.306564,-0.541197 -3.076126,-1.617317 -4,-2c-1.306564,-0.541197 -2,-1 -3,-2c-1,-1 -2.292892,-0.292892 -3,-1c-0.707108,-0.707108 -1.076126,-0.617317 -2,-1c-1.306564,-0.541197 -2,-2 -3,-2c-1,0 -2.693436,-1.458803 -4,-2c-1.847763,-0.765368 -2.152237,-0.234632 -4,-1c-1.306564,-0.541197 -2.026749,-0.770247 -3,-1c-2.176254,-0.513742 -2.292892,-1.292892 -3,-2c-0.707108,-0.707107 -1.693436,-0.458804 -3,-1c-0.923874,-0.382684 -2.026749,0.229753 -3,0c-2.176254,-0.513743 -2.693436,-1.458804 -4,-2c-0.923874,-0.382684 -2,0 -3,0c-1,0 -1,-1 -2,-1c-1,0 -2,0 -3,0c-1,0 -2,0 -4,0c-1,0 -1.693436,-0.458804 -3,-1c-0.923874,-0.382684 -2,0 -3,0c-1,0 -2,0 -4,0c-1,0 -2,0 -3,0c-1,0 -2,0 -3,0c-1,0 -2,0 -3,0c-1,0 -2,0 -3,0c-1,0 -1.292892,0.292893 -2,1c-0.707108,0.707107 -2.292892,-0.707107 -3,0c-0.707108,0.707107 -1.585785,-0.414213 -3,1c-0.707108,0.707107 -0.292892,1.292893 -1,2c-0.707108,0.707107 -1.693436,0.458804 -3,1c-0.923882,0.382684 -0.823746,1.486258 -3,2c-0.973251,0.229753 -2.292892,0.292892 -3,1c-0.707108,0.707108 -1.824432,0.097887 -3,2c-0.525734,0.850651 -0.693436,1.458803 -2,2c-0.923882,0.382683 -2,1 -3,2c-1,1 -2.292892,0.292892 -3,1c-0.707108,0.707108 -0.693436,1.458803 -2,2c-0.923882,0.382683 -1.617317,0.07612 -2,1c-0.541199,1.306562 -2.292892,0.292892 -3,1c-0.707108,0.707108 -0.292892,1.292892 -1,2c-0.707108,0.707108 -2.458801,-0.306562 -3,1c-0.382683,0.923878 -1.292892,0.292892 -2,1c-0.707108,0.707108 -1.292892,0.292892 -2,1c-0.707108,0.707108 -1.458801,0.693436 -2,2c-0.382683,0.923878 -1.076118,0.617317 -2,1c-1.306564,0.541195 -2.149345,2.47427 -3,3c-1.902115,1.175571 -3.458801,2.693436 -4,4c-0.382683,0.923878 -1.076118,1.617317 -2,2c-1.306564,0.541195 -1.292892,2.292892 -2,3c-0.707108,0.707108 -2.458805,0.693436 -3,2c-0.382683,0.923878 -0.292892,1.292892 -1,2c-0.707108,0.707108 -1.292892,0.292892 -2,1c-0.707108,0.707108 -1,1 -1,2c0,1 -1,1 -2,2c-1,1 -1.292892,1.292892 -2,2c-0.707108,0.707108 -0.292892,1.292892 -1,2c-0.707108,0.707108 -0.292892,1.292892 -1,2c-0.707108,0.707108 -1.292892,1.292892 -2,2c-0.707108,0.707108 -1.292892,1.292892 -2,2c-0.707108,0.707108 -1.292892,0.292892 -2,1c-0.707108,0.707108 -1.292892,1.292892 -2,2c-0.707108,0.707108 -1,1 -1,2c0,1 -0.617317,1.076118 -1,2c-0.541195,1.306564 -2.458805,1.693436 -3,3c-0.382683,0.923882 -0.292892,1.292892 -1,2c-0.707108,0.707108 -1.292892,1.292892 -2,2c-0.707108,0.707108 0.707108,2.292892 0,3c-0.707108,0.707108 -1.458805,0.693436 -2,2c-0.382683,0.923882 -0.617317,2.076118 -1,3c-0.541197,1.306564 -1.292892,1.292892 -2,2c-0.707108,0.707108 -0.292892,1.292892 -1,2c-0.707108,0.707108 0,2 -1,3c-1,1 -0.617317,2.076118 -1,3c-0.541197,1.306564 -1,2 -1,3c0,1 -1,1 -1,2c0,1 0.707108,2.292892 0,3c-0.707108,0.707108 -1,1 -1,2c0,1 -0.292892,1.292892 -1,2c-0.707108,0.707108 0,2 0,3c0,1 -0.458803,1.693436 -1,3c-0.382683,0.923882 0,2 0,3c0,1 0.382683,2.076118 0,3c-0.541197,1.306564 -1,2 -1,3c0,1 0.382683,2.076126 0,3c-0.541197,1.306564 0.414213,2.585785 -1,4c-0.707108,0.707108 -1,1 -1,2c0,1 0.382683,2.076126 0,3c-0.541197,1.306564 -1,2 -1,3c0,1 -1,1 -1,2c0,1 0,2 0,3c0,1 0,2 0,3c0,1 -1,1 -1,2c0,1 0,2 0,3c0,1 -0.292893,1.292892 -1,2c-0.707107,0.707108 0,2 0,3c0,1 0,3 0,4c0,2 0,3 0,5c0,1 -0.486257,2.823746 -1,5c-0.229753,0.973251 0,3 0,4c0,2 0,3 0,4c0,1 0,3 0,4c0,1 -1,4 -1,5c0,1 0.382684,2.076126 0,3c-0.541196,1.306564 -1,2 -1,3c0,1 0.382684,3.076126 0,4c-0.541196,1.306564 -1,2 -1,3c0,2 -0.458804,2.693436 -1,4c-0.382684,0.923874 0,2 0,3c0,1 0,3 0,5c0,1 0,2 0,3c0,1 0,2 0,3c0,1 0,2 0,3c0,1 0,2 0,3c0,1 0,2 0,3c0,1 0,3 0,4c0,1 0,3 0,5c0,1 0.765367,3.152237 0,5c-0.541196,1.306564 -1,2 -1,4c0,2 -0.458804,2.693436 -1,4c-0.765367,1.847763 0,3 0,6c0,1 0,2 0,3c0,1 0,2 0,3c0,1 0,2 0,3c0,1 -0.458804,2.693451 -1,4c-0.382683,0.923889 0,3 0,4c0,1 0,2 0,3c0,1 0,2 0,3c0,1 0,2 0,3c0,1 0,3 0,4c0,1 0,2 0,3c0,1 0,2 0,3c0,1 0,2 0,3c0,1 0,2 0,3c0,1 -0.382683,2.076111 0,3c0.541196,1.306549 1,2 1,3c0,2 0.458804,2.693451 1,4c0.382684,0.923889 0,2 0,3c0,1 0,2 0,3c0,1 0,2 0,3c0,1 0,2 0,3c0,1 0,2 0,3c0,1 1,2 1,3l0,1l0,1"
            fill="#000000"
            fill-opacity="null"
            id="svg_2"
            stroke="#000"
            stroke-opacity="null"
            stroke-width="1.5" />
    </g>
</svg>