<svg height="270"
    width="230"
    xmlns="http://www.w3.org/2000/svg">
    <!-- Created with Method Draw - http://github.com/duopixel/Method-Draw/ -->

    <g>
        <title>Layer 1</title>
        <path
            d="m18.5,66.5c0,0 0,-1 0,-2c0,-1 0,-2 0,-3c0,0 0.292892,-0.292892 1,-1c0.707108,-0.707108 0.292892,-2.292892 1,-3c0.707108,-0.707108 0.292892,-1.292892 1,-2c0.707108,-0.707108 1.07612,-0.617317 2,-1c1.306562,-0.541195 1.292892,-2.292892 2,-3c0.707108,-0.707108 0.693438,-1.458805 2,-2c0.92388,-0.382683 0.693438,-1.458805 2,-2c0.923878,-0.382683 1.292892,-0.292892 2,-1c0.707108,-0.707108 1.458805,-0.693436 2,-2c0.382683,-0.923878 0.693436,-1.458805 2,-2c0.923878,-0.382683 1.292892,-0.292892 2,-1c0.707108,-0.707108 0.693436,-1.458805 2,-2c0.923878,-0.382683 1,-1 2,-1c1,0 1.292892,-0.292892 2,-1c0.707108,-0.707108 1.292892,-1.292892 2,-2c0.707108,-0.707108 2.076122,-0.617317 3,-1c1.306564,-0.541197 2,-1 3,-2c1,-1 1.292892,-1.292892 2,-2c0.707108,-0.707108 1,-1 2,-1c1,0 0.292892,-1.292892 1,-2c0.707108,-0.707108 2.292892,-0.292892 3,-1c0.707108,-0.707108 1.458805,-0.693438 2,-2c0.382683,-0.92388 0.292892,-1.292892 1,-2c0.707108,-0.707108 1.292892,-0.292892 2,-1c0.707108,-0.707108 1.292892,-1.292892 2,-2c0.707108,-0.707107 1.292892,-0.292892 2,-1c0.707108,-0.707107 2.076118,-0.617316 3,-1c1.306564,-0.541196 1,-2 2,-2c1,0 1,-1 2,-1c1,0 1,-1 2,-1c1,0 0.693436,-1.458804 2,-2c0.923882,-0.382684 1.292892,-0.292893 2,-1c0.707108,-0.707107 2,0 3,0c1,0 2,-1 3,-1c1,0 2,0 3,0c1,0 2,-1 3,-1c1,0 1,-1 2,-1c1,0 2,0 3,0c1,0 1,-1 2,-1c1,0 2,0 3,0c1,0 2.076118,0.382684 3,0c1.306564,-0.541196 2,-1 3,-1c1,0 2,0 3,0c1,0 2,0 3,0c1,0 2,0 3,0c1,0 2,0 3,0c1,0 1.693436,0.458804 3,1c0.923874,0.382684 2.076126,-0.382684 3,0c1.306564,0.541196 1.292892,1.292893 2,2c0.707108,0.707107 2.292892,-0.707107 3,0c0.707108,0.707107 1.076126,0.617317 2,1c1.306564,0.541196 2.076126,0.617317 3,1c1.306564,0.541196 2,2 3,2c1,0 1.292892,0.292893 2,1c0.707108,0.707107 2.076126,-0.382684 3,0c1.306564,0.541196 2,1 3,1c1,0 1.292892,0.292893 2,1c0.707108,0.707107 2,1 3,1c1,0 1.292892,0.292893 2,1c0.707108,0.707107 2.076126,-0.382684 3,0c1.306564,0.541196 2.292892,0.292893 3,1c0.707108,0.707108 0.292892,1.292892 1,2c0.707108,0.707108 1.292892,0.292892 2,1c0.707108,0.707108 1.693436,0.458803 3,1c0.923874,0.382683 1.292892,0.292892 2,1c0.707108,0.707108 1.076126,0.617317 2,1c1.306564,0.541197 1.292892,1.292892 2,2c0.707108,0.707108 2.292892,-0.707108 3,0c0.707108,0.707108 1,2 2,2c1,0 1,1 2,1c1,0 1,1 2,1c1,0 1.292892,0.292892 2,1c0.707108,0.707108 0.61731,1.07612 1,2c0.541199,1.306562 1.292892,1.292892 2,2c0.707108,0.707108 1.292892,0.292892 2,1c0.707108,0.707108 0.292892,1.292892 1,2c0.707108,0.707108 1.292892,0.292892 2,1c0.707108,0.707108 0.693436,1.458805 2,2c0.923874,0.382683 1.292892,0.292892 2,1c0.707108,0.707108 0.61731,1.076122 1,2c0.541199,1.306564 1.292892,1.292892 2,2c0.707108,0.707108 1.076126,0.617317 2,1c1.306564,0.541195 1.693436,2.458805 3,3c0.923874,0.382683 1.292892,1.292892 2,2c0.707108,0.707108 1.693436,1.458805 3,2c0.923874,0.382683 1.292892,0.292892 2,1c0.707108,0.707108 0.292892,1.292892 1,2c0.707108,0.707108 1.292892,1.292892 2,2c0.707108,0.707108 1.292892,0.292892 2,1c0.707108,0.707108 1,1 2,2c1,1 1.292892,1.292892 2,2c0.707108,0.707108 0,2 1,2c1,0 0.61731,1.076118 1,2c0.541199,1.306564 1.458801,1.693436 2,3c0.38269,0.923882 0.292892,1.292892 1,2c0.707108,0.707108 0.292892,1.292892 1,2c0.707108,0.707108 0.458801,1.693436 1,3c0.38269,0.923882 0,2 0,3c0,1 0.292892,1.292892 1,2c0.707108,0.707108 0,2 0,3c0,1 -0.707108,2.292892 0,3c0.707108,0.707108 0.61731,1.076118 1,2c0.541199,1.306564 1,2 1,3c0,1 -0.707108,2.292892 0,3c0.707108,0.707108 1,1 1,2c0,1 0,2 0,3c0,1 0,2 0,3c0,1 0,2 0,3c0,1 0,2 0,3c0,1 0,2 0,3c0,1 0,2 0,3c0,1 0,2 0,3c0,1 0,2 0,3c0,1 -0.229752,2.026749 0,3c0.513748,2.176254 1,3 1,4c0,1 0,2 0,3c0,1 -0.38269,4.076126 0,5c0.541199,1.306564 1,3 1,4c0,2 0,3 0,4c0,1 0,2 0,4c0,2 0,4 0,5c0,1 0,2 0,3c0,1 0,2 0,3c0,2 0,4 0,5c0,2 0,3 0,5c0,1 0,3 0,5c0,1 0,2 0,3c0,1 0,2 0,4c0,1 0,4 0,6c0,1 0,4 0,6c0,3 0,6 0,7c0,3 0.122177,4.007492 0,5c-0.503769,4.092209 -1,6 -1,8c0,3 -0.496231,5.907791 -1,10c-0.24437,1.985016 0,5 0,7c0,3 0,8 0,10c0,2 0,3 0,4c0,1 0,3 0,4c0,1 0,3 0,5c0,1 0,2 0,3c0,2 0,4 0,6c0,2 0.38269,3.076111 0,4c-0.541199,1.306549 -1,2 -1,3c0,1 -0.292892,1.292908 -1,2c-1.414215,1.414215 0.707108,3.292908 0,4c-0.707108,0.707092 -0.292892,1.292908 -1,2c-0.707108,0.707092 -1.076126,0.61731 -2,1c-1.306564,0.541199 -2.097885,2.824432 -4,4c-3.402603,2.102936 -4.693436,1.458801 -6,2c-1.847763,0.765381 -3.549149,1.95517 -7,3c-1.914185,0.579559 -4.025818,-0.320374 -6,0c-3.121445,0.506531 -6.823746,2.486267 -9,3c-1.946503,0.459503 -4,0 -6,0c-4,0 -7,0 -10,0c-3,0 -5,0 -8,0c-4,0 -7,0 -9,0c-4,0 -7,0 -12,0c-4,0 -8.06456,-0.199097 -13,-1c-3.121445,-0.506531 -10.051651,-1.359283 -14,-2c-3.121445,-0.506531 -7.014603,-0.704376 -10,-1c-5.074203,-0.502441 -8.0718,-1.691254 -13,-3c-3.056343,-0.811646 -5.978981,-1.065399 -9,-2c-6.954903,-2.151581 -9.078438,-1.789856 -12,-3c-2.065857,-0.855713 -5.0718,-0.691254 -10,-2c-3.056343,-0.811646 -5.823746,-1.486267 -8,-2c-1.946499,-0.459503 -5,-1 -7,-1c-3,0 -3.82375,-0.486267 -6,-1c-1.946499,-0.459503 -4,-1 -5,-1c-1,0 -3.012913,0.160187 -4,0c-3.121445,-0.506531 -4,-2 -6,-2c-1,0 -1.82375,-0.486267 -4,-1c-1.946499,-0.459503 -4.07612,0.38269 -5,0c-1.306562,-0.541199 -3.693438,-1.458801 -5,-2c-0.92388,-0.38269 -2,0 -3,0c-1,0 -2,0 -3,0c-1,0 -1,-1 -2,-1c-1,0 -0.292893,-1.292908 -1,-2c-0.707107,-0.707092 -1,-1 -2,-1c-1,0 -1.292893,-0.292908 -2,-1c-0.707107,-0.707092 -0.07612,-1.61731 -1,-2c-1.306563,-0.541199 -1.07612,-1.61731 -2,-2c-1.306563,-0.541199 -1.292893,-1.292892 -2,-2c-0.707107,-0.707108 -0.292893,-2.292892 -1,-3c-0.707107,-0.707108 -1.292893,-0.292892 -2,-1c-0.707107,-0.707108 -0.292893,-2.292892 -1,-3c-0.707107,-0.707108 -1,-1 -1,-2c0,-1 -0.617316,-1.076126 -1,-2c-0.541196,-1.306564 -1,-2 -1,-3c0,-1 -0.292893,-1.292892 -1,-2c-0.707107,-0.707108 0,-2 0,-3c0,-1 0,-2 0,-3c0,-1 0,-2 0,-3c0,-1 0,-2 0,-3c0,-1 0,-2 0,-3c0,-1 0,-2 0,-3c0,-1 0,-2 0,-3c0,-1 0,-2 0,-3c0,-1 0,-2 0,-3c0,-1 0,-2 0,-4c0,-1 0,-2 0,-3c0,-2 0,-3 0,-5c0,-2 0,-3 0,-4c0,-2 0,-4 0,-5c0,-1 0,-2 0,-4c0,-1 0,-2 0,-3c0,-1 0,-3 0,-4c0,-1 0,-2 0,-3c0,-1 0,-2 0,-3c0,-1 0,-2 0,-3c0,-1 0,-2 0,-3c0,-1 -0.382683,-2.076126 0,-3c0.541196,-1.306564 1,-2 1,-3c0,-1 1,-1 1,-2c0,-1 0,-2 0,-3c0,-2 0,-3 0,-4c0,-1 0,-2 0,-3c0,-1 0,-2 0,-3c0,-2 1,-3 1,-4c0,-1 0,-2 0,-3c0,-1 0,-2 0,-3c0,-1 0,-2 0,-4c0,-1 0,-2 0,-3c0,-1 1,-2 1,-3c0,-2 0,-3 0,-4c0,-1 0,-2 0,-4c0,-1 0,-2 0,-3c0,-1 1,-1 1,-2c0,-1 0,-2 0,-3c0,-1 0,-2 0,-3c0,-1 0,-2 0,-3c0,-1 0,-2 0,-3c0,-1 0,-2 0,-3c0,-1 1,-2 1,-3c0,-1 0,-2 0,-3c0,-1 1,-1 1,-2c0,-1 0.292893,-1.292892 1,-2c0.707107,-0.707108 0.292893,-1.292892 1,-2c0.707107,-0.707108 1,-2 1,-3c0,-1 0.617317,-1.076118 1,-2c0.541196,-1.306564 1.617316,-2.076118 2,-3c0.541196,-1.306564 0.292893,-2.292892 1,-3c0.707107,-0.707108 0.292893,-1.292892 1,-2c0.707107,-0.707108 1.292893,-0.292892 2,-1c0.707107,-0.707108 0.292893,-1.292892 1,-2c0.707107,-0.707108 0.292893,-1.292892 1,-2c0.707107,-0.707108 0,-2 1,-2c1,0 0.292893,-1.292892 1,-2c0.707108,-0.707108 1.458803,-0.693436 2,-2c0.382683,-0.923878 0.292892,-1.292892 1,-2c0.707108,-0.707108 0.292892,-1.292892 1,-2c0.707108,-0.707108 1,-1 1,-2l1,0l0,-1"
            fill="#000000"
            id="svg_2"
            stroke="#000"
            stroke-width="1.5" />
    </g>
</svg>